<?xml version="1.0" standalone="no"?>
<!DOCTYPE svg PUBLIC "-//W3C//DTD SVG 20010904//EN"
 "http://www.w3.org/TR/2001/REC-SVG-20010904/DTD/svg10.dtd">
<svg version="1.0" xmlns="http://www.w3.org/2000/svg"
 width="150.000000pt" height="150.000000pt" viewBox="0 0 150.000000 150.000000"
 preserveAspectRatio="xMidYMid meet">
<metadata>
Created by potrace 1.13, written by Peter Selinger 2001-2015
</metadata>
<g transform="translate(0.000000,150.000000) scale(0.100000,-0.100000)"
fill="#000000" stroke="none">
<path d="M590 1374 c-30 -8 -93 -33 -140 -55 -68 -33 -101 -58 -165 -123 -131
-132 -189 -271 -189 -451 -1 -121 13 -183 66 -295 33 -70 56 -101 127 -171
135 -135 267 -190 456 -190 108 0 184 15 274 56 335 153 477 560 310 888 -86
170 -249 299 -429 341 -81 19 -237 19 -310 0z m320 -60 c129 -38 243 -117 315
-219 83 -116 116 -218 116 -356 0 -205 -94 -383 -264 -497 -107 -71 -196 -97
-332 -97 -81 0 -125 5 -165 19 -197 67 -338 202 -400 386 -30 88 -37 232 -16
322 54 230 250 416 479 458 69 12 199 4 267 -16z"/>
<path d="M499 1147 c-40 -27 -59 -60 -59 -104 0 -28 4 -33 24 -33 18 0 25 7
30 32 12 61 28 68 143 68 l103 0 0 -70 c0 -81 16 -128 55 -158 24 -19 41 -22
116 -22 l89 0 0 -210 c0 -236 9 -206 -80 -280 l-35 -29 38 -1 c21 0 51 7 67
15 59 30 60 36 60 305 l0 246 -133 132 -134 132 -125 0 c-114 0 -128 -2 -159
-23z"/>
<path d="M352 868 l3 -103 173 -3 172 -2 0 105 0 105 -175 0 -176 0 3 -102z"/>
<path d="M440 580 c0 -168 8 -198 60 -225 16 -8 46 -15 66 -15 l37 0 -24 26
c-13 14 -34 30 -47 35 -34 13 -42 49 -42 195 l0 134 -25 0 -25 0 0 -150z"/>
<path d="M650 550 l0 -120 -35 0 c-19 0 -35 -3 -35 -8 0 -4 37 -44 83 -90 l82
-82 83 83 c45 45 82 86 82 90 0 4 -13 7 -30 7 l-29 0 -3 118 -3 117 -97 3 -98
3 0 -121z"/>
</g>
</svg>
