<svg xmlns="http://www.w3.org/2000/svg" viewBox="0 0 38.8 36.7"><path fill="none" d="M26.8 10.1c0 1.5.7 2.1 2.1 2.1h5.6l-7.7-7.7v5.6z"/><path fill="#717271" d="M37.9 12.4l-11.1-11c-.2-.2-.5-.3-.8-.3H13.6c-2.7 0-4.4 1.7-4.4 4.4v12.4h2.2V5.4c0-1.5.7-2.1 2.1-2.1h11.1v6.8c0 2.7 1.7 4.4 4.4 4.4h7v17.4c0 1.5-.7 2-2.1 2H17.2c-.6 0-1.1.5-1.1 1.1 0 .6.5 1.1 1.1 1.1H34c2.7 0 4.4-1.6 4.4-4.3V13.2c-.2-.3-.3-.6-.5-.8zm-8.9-.2c-1.5 0-2.1-.7-2.1-2.1V4.5l7.7 7.7H29z"/><path fill="#717271" d="M15.5 9.6h5.2c.5 0 .9-.4.9-.9s-.4-.9-.9-.9h-5.2c-.5 0-.9.4-.9.9.1.5.5.9.9.9zM15.5 13.6h5.2c.5 0 .9-.4.9-.9s-.4-.9-.9-.9h-5.2c-.5 0-.9.4-.9.9.1.5.5.9.9.9zM31.7 27.1H24c-.5 0-.9.4-.9.9s.4.9.9.9h7.6c.5 0 .9-.4.9-.9s-.4-.9-.8-.9zM24 20.6h7.7c.5 0 .9-.4.9-.9s-.4-.9-.9-.9H24c-.5 0-.9.4-.9.9s.4.9.9.9zM24 24.9h7.7c.5 0 .9-.4.9-.9s-.4-.9-.9-.9H24c-.5 0-.9.4-.9.9s.4.9.9.9z"/><path fill="#E2231A" d="M9.2 17.8H5.7c-.6 0-1 .4-1 .8V26H1.6c-.6 0-1 .4-1 .8 0 .2.1.4.3.6l8.8 8.4c.2.1.5.2.7.2.3 0 .6-.1.8-.3l8.7-8.3c.2-.2.3-.4.3-.6 0-.5-.5-.8-1-.8H16v-7.3c0-.5-.5-.8-1-.8h-3.6l-2.2-.1z"/></svg>